<svg width="512" height="512" viewBox="0 0 512 512" fill="none" xmlns="http://www.w3.org/2000/svg">
<g clip-path="url(#clip0_399_1451)">
<path fill-rule="evenodd" clip-rule="evenodd" d="M295.004 270.078C286.722 270.193 296.571 274.346 307.384 276.01C310.37 273.677 313.08 271.318 315.495 269.022C308.762 270.672 301.908 270.709 295.004 270.078Z" fill="#A80030"/>
<path fill-rule="evenodd" clip-rule="evenodd" d="M339.457 258.998C344.389 252.191 347.984 244.738 349.251 237.032C348.145 242.526 345.163 247.268 342.356 252.273C326.875 262.021 340.9 246.485 342.347 240.581C325.7 261.533 340.061 253.145 339.457 258.998Z" fill="#A80030"/>
<path fill-rule="evenodd" clip-rule="evenodd" d="M355.865 216.301C356.865 201.386 352.929 206.101 351.606 211.793C353.15 212.595 354.372 222.306 355.865 216.301Z" fill="#A80030"/>
<path fill-rule="evenodd" clip-rule="evenodd" d="M263.599 12.448C268.019 13.2407 273.149 13.8491 272.43 14.9046C277.264 13.8445 278.361 12.8674 263.599 12.448Z" fill="#A80030"/>
<path fill-rule="evenodd" clip-rule="evenodd" d="M272.43 14.9045L269.305 15.5498L272.213 15.2917L272.43 14.9045Z" fill="#A80030"/>
<path fill-rule="evenodd" clip-rule="evenodd" d="M410.255 221.956C410.748 235.35 406.338 241.848 402.36 253.352L395.202 256.929C389.344 268.303 395.769 264.151 391.575 273.198C382.431 281.328 363.825 298.639 357.87 300.22C353.524 300.124 360.815 295.091 361.769 293.118C349.528 301.525 351.948 305.737 333.226 310.844L332.678 309.627C286.505 331.349 222.367 288.302 223.211 229.565C222.718 233.294 221.81 232.363 220.787 233.87C218.404 203.649 234.742 173.295 262.299 160.902C289.252 147.559 320.851 153.034 340.158 171.027C329.553 157.136 308.444 142.411 283.427 143.789C258.921 144.176 235.996 159.749 228.345 176.655C215.791 184.559 214.334 207.125 208.863 211.254C201.503 265.349 222.709 288.721 258.58 316.213C264.226 320.02 260.17 320.596 260.935 323.495C249.016 317.914 238.102 309.489 229.129 299.174C233.89 306.143 239.029 312.918 245.67 318.241C234.434 314.434 219.422 291.012 215.039 290.058C234.411 324.74 293.631 350.882 324.64 337.912C310.292 338.442 292.064 338.207 275.942 332.248C269.171 328.763 259.963 321.546 261.608 320.195C303.927 336.004 347.643 332.169 384.261 302.815C393.575 295.561 403.752 283.218 406.692 283.047C402.263 289.707 407.448 286.251 404.047 292.132C413.329 277.162 400.014 286.039 413.643 266.28L418.676 273.212C416.804 260.786 434.106 245.697 432.35 226.044C436.319 220.034 436.78 232.511 432.567 246.337C438.411 230.999 434.106 228.533 435.609 215.877C437.231 220.131 439.361 224.652 440.453 229.141C436.646 214.319 444.361 204.179 446.269 195.565C444.389 194.731 440.393 202.119 439.48 184.61C439.614 177.005 441.596 180.623 442.361 178.752C440.868 177.895 436.95 172.064 434.567 160.883C436.296 158.256 439.185 167.695 441.536 168.082C440.024 159.192 437.42 152.412 437.314 145.591C430.447 131.239 434.885 147.503 429.313 139.429C422.003 116.628 435.378 134.138 436.282 123.777C447.362 139.83 453.68 164.709 456.579 175.014C454.367 162.45 450.791 150.278 446.426 138.502C449.791 139.917 441.006 112.651 450.8 130.708C440.338 92.2147 406.024 56.2466 374.458 39.3687C378.32 42.9037 383.196 47.3421 381.445 48.0381C365.747 38.6912 368.507 37.963 366.258 34.0131C353.468 28.8096 352.63 34.4325 344.158 34.0223C320.054 21.2372 315.408 22.5968 293.225 14.5865L294.235 19.3014C278.265 13.9827 275.628 21.3201 258.368 19.3198C257.317 18.4995 263.899 16.3517 269.314 15.5636C253.874 17.6007 254.598 12.5217 239.49 16.1259C243.214 13.5126 247.15 11.7842 251.123 9.56274C238.531 10.3278 221.063 16.8909 226.456 10.9224C205.918 20.0849 169.443 32.9485 148.975 52.14L148.33 47.8399C138.95 59.0995 107.43 81.4667 104.918 96.0493L102.411 96.6347C97.53 104.898 94.3729 114.264 90.5014 122.767C84.118 133.644 81.1452 126.952 82.0532 128.658C69.4985 154.113 63.2626 175.503 57.8748 193.044C61.714 198.782 57.9669 227.588 59.4187 250.642C53.1137 364.501 139.328 475.051 233.567 500.575C247.38 505.516 267.922 505.327 285.395 505.834C264.779 499.939 262.115 502.709 242.034 495.708C227.548 488.887 224.372 481.098 214.113 472.193L218.173 479.369C198.051 472.249 206.471 470.557 190.1 465.372L194.437 459.708C187.916 459.215 177.163 448.715 174.223 442.904L167.088 443.185C158.515 432.607 153.948 424.984 154.28 419.08L151.975 423.187C149.362 418.702 120.436 383.518 135.443 391.708C132.655 389.159 128.949 387.56 124.93 380.259L127.986 376.765C120.764 367.474 114.694 355.564 115.155 351.596C119.008 356.8 121.681 357.772 124.326 358.662C106.089 313.411 105.066 356.168 91.2526 312.6L94.1747 312.365C91.9347 308.991 90.5751 305.327 88.773 301.732L90.0451 289.057C76.9142 273.876 86.3718 224.505 88.266 197.427C89.5796 186.417 99.2261 174.696 106.563 156.316L102.093 155.546C110.638 140.641 150.883 95.6852 169.521 97.9989C178.55 86.6563 167.729 97.9574 165.963 95.0999C185.796 74.5763 192.031 80.6002 205.416 76.9084C219.851 68.3404 193.027 80.2499 199.871 73.6407C224.824 67.2666 217.556 59.1502 250.109 55.9148C253.542 57.8689 242.14 58.9336 239.278 61.4685C260.069 51.2966 305.07 53.6103 334.3 67.1145C368.217 82.9646 406.324 129.819 407.826 173.903L409.536 174.364C408.67 191.887 412.219 212.153 406.07 230.768L410.255 221.956Z" fill="#A80030"/>
<path fill-rule="evenodd" clip-rule="evenodd" d="M204.605 281.448L203.443 287.255C208.886 294.648 213.205 302.658 220.155 308.438C215.154 298.676 211.44 294.643 204.605 281.448Z" fill="#A80030"/>
<path fill-rule="evenodd" clip-rule="evenodd" d="M217.473 280.941C214.592 277.756 212.887 273.922 210.979 270.101C212.804 276.816 216.542 282.586 220.021 288.454L217.473 280.941Z" fill="#A80030"/>
<path fill-rule="evenodd" clip-rule="evenodd" d="M445.172 231.45L443.955 234.502C441.725 250.347 436.908 266.027 429.525 280.563C437.683 265.225 442.96 248.448 445.172 231.45Z" fill="#A80030"/>
<path fill-rule="evenodd" clip-rule="evenodd" d="M265.235 8.475C270.835 6.42402 279.002 7.35042 284.943 6C277.2 6.64986 269.494 7.03701 261.884 8.01871L265.235 8.475Z" fill="#A80030"/>
<path fill-rule="evenodd" clip-rule="evenodd" d="M68.6412 113.015C69.9317 124.961 59.6538 129.598 70.918 121.721C76.9557 108.12 68.5582 117.965 68.6412 113.015Z" fill="#A80030"/>
<path fill-rule="evenodd" clip-rule="evenodd" d="M55.4043 168.304C57.9991 160.339 58.4693 155.555 59.4602 150.946C52.2887 160.113 56.1602 162.068 55.4043 168.304Z" fill="#A80030"/>
</g>
<defs>
<clipPath id="clip0_399_1451">
<rect width="402" height="500" fill="white" transform="translate(55 6)"/>
</clipPath>
</defs>
</svg>
