<svg width="512" height="512" viewBox="0 0 512 512" fill="none" xmlns="http://www.w3.org/2000/svg">
<path d="M511.275 255.366C511.275 396.393 396.944 510.727 255.908 510.727C114.87 510.727 0.540527 396.393 0.540527 255.366C0.540527 114.331 114.871 0 255.908 0C396.946 0 511.275 114.331 511.275 255.366Z" fill="#DD4814"/>
<path d="M82.2668 221.265C63.4279 221.265 48.1655 236.529 48.1655 255.366C48.1655 274.195 63.4279 289.457 82.2668 289.457C101.095 289.457 116.358 274.195 116.358 255.366C116.358 236.529 101.095 221.265 82.2668 221.265ZM325.697 376.222C309.389 385.641 303.798 406.481 313.218 422.78C322.626 439.087 343.466 444.677 359.774 435.258C376.08 425.85 381.671 405.01 372.253 388.701C362.844 372.404 341.992 366.814 325.697 376.222ZM156.324 255.366C156.324 221.673 173.059 191.907 198.667 173.882L173.741 132.133C143.911 152.073 121.716 182.542 112.493 218.228C123.255 227.01 130.144 240.379 130.144 255.365C130.144 270.342 123.255 283.711 112.493 292.493C121.704 328.189 143.899 358.66 173.741 378.599L198.667 336.84C173.059 318.826 156.324 289.061 156.324 255.366ZM255.908 155.771C307.934 155.771 350.618 195.661 355.098 246.532L403.68 245.815C401.289 208.259 384.883 174.544 359.673 149.752C346.71 154.649 331.735 153.9 318.793 146.439C305.828 138.958 297.699 126.336 295.477 112.635C282.876 109.158 269.615 107.254 255.905 107.254C232.337 107.254 210.054 112.79 190.269 122.583L213.959 165.035C226.703 159.104 240.921 155.771 255.908 155.771ZM255.908 354.951C240.921 354.951 226.703 351.616 213.96 345.687L190.27 388.138C210.055 397.943 232.338 403.48 255.908 403.48C269.618 403.48 282.879 401.575 295.478 398.087C297.7 384.386 305.832 371.777 318.794 364.281C331.746 356.808 346.711 356.073 359.675 360.97C384.884 336.178 401.291 302.463 403.681 264.907L355.088 264.19C350.618 315.075 307.936 354.951 255.908 354.951ZM325.685 134.489C341.992 143.906 362.834 138.329 372.242 122.021C381.661 105.714 376.083 84.8718 359.774 75.4516C343.466 66.0434 322.626 71.6334 313.204 87.9408C303.798 104.239 309.388 125.081 325.685 134.489Z" fill="white"/>
</svg>
